# Low-poly extruded flame silhouette for Gazebo detection visualization.
o flame
v -0.300 -0.060 0.000
v -0.430 -0.060 0.300
v -0.300 -0.060 0.650
v -0.150 -0.060 0.450
v -0.080 -0.060 0.900
v 0.060 -0.060 1.300
v 0.180 -0.060 0.790
v 0.320 -0.060 0.560
v 0.280 -0.060 0.900
v 0.460 -0.060 0.420
v 0.360 -0.060 0.100
v 0.200 -0.060 0.000
v -0.300 0.060 0.000
v -0.430 0.060 0.300
v -0.300 0.060 0.650
v -0.150 0.060 0.450
v -0.080 0.060 0.900
v 0.060 0.060 1.300
v 0.180 0.060 0.790
v 0.320 0.060 0.560
v 0.280 0.060 0.900
v 0.460 0.060 0.420
v 0.360 0.060 0.100
v 0.200 0.060 0.000
v 0.000 -0.061 0.400
v 0.000 0.061 0.400
f 25 1 2
f 25 2 3
f 25 3 4
f 25 4 5
f 25 5 6
f 25 6 7
f 25 7 8
f 25 8 9
f 25 9 10
f 25 10 11
f 25 11 12
f 25 12 1
f 26 14 13
f 26 15 14
f 26 16 15
f 26 17 16
f 26 18 17
f 26 19 18
f 26 20 19
f 26 21 20
f 26 22 21
f 26 23 22
f 26 24 23
f 26 13 24
f 1 13 14
f 1 14 2
f 2 14 15
f 2 15 3
f 3 15 16
f 3 16 4
f 4 16 17
f 4 17 5
f 5 17 18
f 5 18 6
f 6 18 19
f 6 19 7
f 7 19 20
f 7 20 8
f 8 20 21
f 8 21 9
f 9 21 22
f 9 22 10
f 10 22 23
f 10 23 11
f 11 23 24
f 11 24 12
f 12 24 13
f 12 13 1
